<?xml version="1.0" standalone="no"?>
<!DOCTYPE svg PUBLIC "-//W3C//DTD SVG 20010904//EN"
 "http://www.w3.org/TR/2001/REC-SVG-20010904/DTD/svg10.dtd">
<svg version="1.0" xmlns="http://www.w3.org/2000/svg"
 width="439.000000pt" height="437.000000pt" viewBox="0 0 439.000000 437.000000"
 preserveAspectRatio="xMidYMid meet">
<metadata>
Created by potrace 1.16, written by Peter Selinger 2001-2019
</metadata>
<g transform="translate(0.000000,437.000000) scale(0.100000,-0.100000)"
fill="#000000" stroke="none">
<path d="M2262 3588 c-22 -22 -13 -59 22 -94 37 -37 75 -44 96 -19 12 14 15
13 35 -5 28 -26 54 -25 96 3 37 24 50 67 28 93 -21 25 -77 17 -111 -16 -28
-29 -31 -30 -44 -13 -7 10 -14 21 -14 25 0 11 -56 38 -78 38 -10 0 -23 -5 -30
-12z"/>
<path d="M2160 3220 c-81 -5 -107 -11 -165 -40 l-70 -34 -218 -6 c-174 -5
-220 -9 -228 -21 -5 -8 -9 -36 -9 -63 l0 -49 88 7 c157 12 181 17 187 37 7 22
32 49 45 49 12 0 5 -139 -7 -151 -6 -6 -16 -2 -28 11 -15 17 -30 20 -99 19
-45 -1 -105 -4 -135 -7 -51 -7 -55 -9 -67 -42 -7 -19 -13 -42 -13 -51 -1 -25
43 -39 123 -39 78 0 73 -2 315 97 74 30 151 61 172 68 l38 14 -15 -42 c-18
-49 -12 -97 18 -146 44 -70 20 -151 -75 -257 -56 -63 -67 -84 -67 -131 l0 -38
-183 -75 c-220 -90 -238 -104 -245 -186 -4 -52 -9 -62 -40 -90 -38 -33 -39
-64 -2 -64 49 0 17 -40 -125 -155 -80 -64 -150 -125 -155 -136 -9 -16 -22 -19
-87 -19 -45 0 -94 7 -123 17 -57 20 -93 10 -112 -33 -28 -60 75 -169 182 -193
25 -6 88 -11 141 -11 75 0 111 -5 169 -25 88 -30 170 -33 192 -7 8 9 20 33 27
52 6 19 68 143 137 274 112 213 124 241 110 252 -15 11 -15 14 1 45 10 19 18
35 19 37 1 1 48 12 105 23 57 11 148 31 202 46 l98 26 17 -24 c43 -61 68 -81
117 -90 56 -11 65 -20 65 -73 0 -21 9 -53 20 -71 34 -55 79 -173 95 -249 8
-40 28 -160 44 -267 34 -225 39 -232 136 -244 85 -11 149 2 255 51 56 25 112
44 132 44 70 0 224 133 263 227 11 27 11 36 -3 65 -23 45 -52 46 -148 4 -93
-40 -168 -66 -192 -66 -13 0 -29 28 -61 108 -44 108 -84 167 -155 232 -90 80
-88 77 -81 156 3 40 1 83 -5 98 -10 28 -112 136 -144 153 -17 9 -17 12 -1 42
13 26 15 49 9 124 -6 85 -3 104 31 245 20 83 40 152 43 152 4 0 32 -14 62 -32
30 -17 93 -52 140 -78 47 -25 130 -72 186 -103 102 -58 119 -63 142 -49 10 7
10 15 -2 43 -14 33 -10 99 8 128 15 23 -22 56 -114 105 -52 27 -110 64 -129
81 -61 55 -132 94 -182 101 -44 6 -48 9 -51 37 -2 17 -11 35 -23 41 -11 6 -26
19 -33 29 -18 24 -66 47 -97 47 -40 0 -88 -24 -125 -64 -19 -20 -40 -36 -47
-36 -15 0 -27 -36 -17 -52 5 -8 2 -9 -10 -5 -10 4 -24 7 -32 7 -8 0 -14 9 -14
20 0 19 -44 70 -59 70 -3 0 -6 25 -6 56 0 76 -11 82 -135 74z m58 -77 c2 -17
12 -39 23 -49 10 -9 19 -23 19 -31 0 -18 -52 -42 -57 -27 -2 6 -10 19 -17 29
-13 17 -18 17 -128 -4 -101 -20 -117 -26 -127 -47 -10 -22 -39 -34 -42 -16 -1
4 -3 16 -4 28 -1 11 -10 33 -20 48 -25 38 -7 53 30 24 l28 -22 106 18 c119 21
141 29 141 55 0 44 44 40 48 -6z m398 -58 c5 -28 19 -44 80 -89 49 -36 79 -53
92 -49 11 2 23 0 27 -6 6 -11 -12 -81 -22 -81 -2 0 -24 19 -46 43 -72 74 -155
130 -183 123 -13 -4 -24 -2 -24 3 0 13 52 91 61 91 5 0 11 -16 15 -35z m304
-225 c0 -24 13 -36 94 -90 80 -52 99 -61 124 -55 38 8 43 -2 36 -59 -5 -37
-11 -46 -26 -46 -12 0 -22 9 -25 21 -4 12 -51 51 -116 94 -87 58 -114 72 -128
64 -10 -5 -22 -9 -28 -9 -17 0 -13 37 4 44 8 3 15 15 15 26 0 12 5 30 11 41
14 27 39 7 39 -31z m-753 -386 c114 -116 149 -123 268 -58 80 44 109 44 135 2
11 -18 20 -45 20 -60 0 -29 -40 -84 -68 -92 -10 -4 -22 -23 -28 -44 -10 -37
-9 -40 44 -106 30 -38 70 -77 88 -88 40 -23 42 -37 11 -66 -27 -25 -35 -21
-65 38 -35 71 -106 161 -138 178 -16 8 -43 28 -60 44 -33 31 -77 39 -210 39
-69 -1 -104 21 -104 64 0 14 -13 36 -32 54 -30 28 -33 36 -33 87 0 63 17 84
68 84 23 0 45 -16 104 -76z m-158 -139 c2 -11 10 -24 18 -30 8 -6 13 -20 11
-31 -3 -15 -11 -18 -37 -16 -50 4 -249 -66 -268 -94 -14 -22 -62 -34 -64 -16
0 4 -2 28 -5 53 -5 54 13 70 52 44 21 -14 31 -12 125 22 88 32 102 40 111 65
8 22 16 28 32 26 11 -2 22 -12 25 -23z m-303 -248 c1 -1 3 -36 5 -77 l4 -75
-34 -15 c-28 -12 -43 -34 -102 -151 -59 -118 -67 -142 -62 -174 4 -26 2 -40
-8 -46 -24 -15 -39 -10 -49 16 -5 14 -20 27 -35 31 -21 5 -25 12 -23 33 2 21
10 28 39 35 35 8 40 16 98 134 44 91 58 128 49 133 -16 10 -12 150 5 162 10 6
107 1 113 -6z m1008 -183 c10 -26 7 -57 -8 -73 -13 -14 -12 -23 8 -71 13 -30
42 -98 63 -150 37 -88 42 -95 73 -101 47 -10 63 -38 34 -61 -9 -7 -31 -28 -49
-46 -21 -21 -38 -30 -48 -26 -19 7 -19 9 -22 74 -1 30 -24 96 -68 200 -59 138
-71 157 -97 167 -24 9 -30 17 -30 42 0 33 27 55 54 45 8 -3 23 -1 33 5 26 15
50 13 57 -5z m-1364 -257 c0 -12 13 -38 29 -57 41 -51 46 -75 21 -100 -20 -20
-23 -20 -45 -6 -14 9 -43 16 -65 16 -23 0 -55 8 -73 17 -22 12 -53 16 -99 15
-76 -2 -88 8 -88 74 l0 36 67 -7 c92 -10 113 -19 113 -50 0 -34 16 -32 23 3 4
20 15 31 40 40 19 7 38 19 41 27 9 24 36 18 36 -8z m1617 -187 c14 -11 34 -20
45 -20 10 0 24 -11 31 -26 l12 -27 5 23 c3 13 12 27 20 31 27 14 128 32 139
25 6 -4 11 -23 11 -41 0 -42 -20 -55 -84 -55 -27 0 -62 -8 -83 -20 -21 -11
-54 -20 -73 -20 -20 0 -41 -5 -47 -11 -6 -6 -21 -9 -34 -7 -33 4 -38 52 -10
82 11 12 24 36 27 54 8 38 8 38 41 12z"/>
<path d="M701 833 c-22 -19 -151 -287 -151 -315 0 -19 45 -58 67 -58 8 0 25
11 39 25 20 21 35 25 79 25 44 0 59 -4 79 -25 14 -14 34 -25 46 -25 26 0 60
34 60 61 0 31 -120 281 -147 307 -29 27 -44 28 -72 5z"/>
<path d="M965 826 c-24 -24 -25 -31 -25 -137 0 -82 4 -120 16 -145 47 -99 176
-120 252 -41 42 43 52 81 52 200 0 91 -2 100 -25 122 -29 30 -45 31 -76 6 -22
-18 -24 -29 -29 -133 -4 -101 -7 -113 -24 -116 -35 -7 -46 25 -46 134 0 106
-3 115 -47 128 -17 5 -29 1 -48 -18z"/>
<path d="M1664 825 c-25 -25 -26 -28 -22 -148 3 -109 6 -126 26 -155 70 -97
219 -86 271 22 17 35 21 61 21 152 0 60 -4 114 -8 120 -12 19 -52 35 -71 29
-38 -12 -46 -35 -51 -149 -4 -99 -7 -111 -24 -114 -35 -7 -46 25 -46 134 0
106 -3 115 -47 128 -17 5 -29 0 -49 -19z"/>
<path d="M2294 840 c-21 -8 -39 -42 -120 -218 -44 -98 -46 -123 -11 -147 30
-21 50 -19 77 10 20 21 33 25 81 25 48 0 60 -4 69 -20 26 -49 110 -27 110 29
0 40 -122 295 -151 315 -26 18 -26 18 -55 6z"/>
<path d="M2562 839 c-36 -13 -44 -53 -40 -202 3 -132 4 -140 27 -158 18 -15
39 -19 100 -19 44 0 87 6 102 14 22 11 29 11 44 0 28 -21 53 -17 79 11 19 21
33 25 77 25 44 0 58 -5 81 -27 24 -23 32 -25 55 -17 15 5 34 20 41 34 13 23
10 35 -55 175 -107 229 -134 230 -235 14 -49 -104 -65 -128 -77 -123 -9 4 -37
9 -63 12 l-48 4 0 107 c0 78 -4 112 -15 128 -18 25 -43 33 -73 22z"/>
<path d="M3548 830 c-22 -17 -28 -36 -48 -159 -25 -152 -22 -186 15 -203 41
-18 73 3 87 57 l12 46 22 -50 c17 -37 30 -52 48 -57 37 -9 71 17 89 68 15 43
19 41 31 -14 8 -36 46 -61 80 -52 47 11 50 34 26 173 -28 165 -36 190 -67 202
-43 16 -62 1 -101 -77 -20 -41 -39 -74 -42 -74 -4 0 -17 26 -29 58 -23 57 -61
102 -85 102 -7 0 -24 -9 -38 -20z"/>
<path d="M267 822 c-14 -16 -17 -43 -17 -168 0 -184 1 -186 94 -192 86 -6 129
3 165 34 40 33 49 80 25 131 -13 26 -18 54 -15 91 3 48 0 55 -32 87 -34 34
-36 35 -119 35 -70 0 -88 -3 -101 -18z"/>
<path d="M1327 822 c-14 -16 -17 -43 -17 -170 0 -139 2 -154 20 -172 41 -41
97 -13 102 51 l3 41 35 -54 c41 -62 69 -72 106 -37 29 27 30 51 4 93 -19 32
-19 32 1 74 26 52 19 106 -18 146 -34 37 -62 46 -147 46 -58 0 -76 -4 -89 -18z"/>
<path d="M3177 822 c-14 -16 -17 -43 -17 -170 0 -139 2 -154 20 -172 41 -41
97 -13 102 51 l3 41 35 -54 c41 -62 69 -72 106 -37 29 27 30 51 4 93 -19 32
-19 32 1 74 26 52 19 106 -18 146 -34 37 -62 46 -147 46 -58 0 -76 -4 -89 -18z"/>
<path d="M3984 826 c-17 -13 -19 -29 -22 -163 -3 -136 -2 -151 16 -174 19 -22
26 -24 117 -24 84 0 98 3 111 19 36 50 1 96 -73 96 -32 0 -43 4 -43 15 0 11
11 15 38 15 41 0 62 14 62 41 0 28 -29 49 -66 49 -24 0 -34 5 -34 15 0 12 13
15 55 15 43 0 56 4 65 19 15 29 12 56 -8 74 -25 22 -188 24 -218 3z"/>
<path d="M685 365 c-19 -18 -25 -35 -25 -65 0 -72 60 -108 134 -80 22 8 26 16
26 50 0 39 -1 40 -35 40 -40 0 -49 -24 -13 -33 18 -5 19 -8 8 -22 -20 -24 -63
-15 -78 18 -26 55 33 113 77 73 10 -9 22 -12 30 -7 11 7 9 13 -8 30 -30 30
-85 28 -116 -4z"/>
<path d="M1110 300 c0 -83 1 -90 20 -90 17 0 20 7 20 40 0 22 4 40 9 40 5 0
25 -18 43 -41 21 -25 41 -40 51 -38 15 4 15 8 -7 39 -23 35 -23 36 -5 59 24
29 24 36 -1 61 -15 15 -33 20 -75 20 l-55 0 0 -90z"/>
<path d="M1373 373 c-3 -10 -17 -45 -29 -77 -13 -33 -24 -65 -24 -73 0 -21 28
-15 35 7 9 29 80 29 88 0 5 -20 37 -29 37 -11 0 6 -14 46 -32 90 -23 61 -36
81 -50 81 -10 0 -21 -8 -25 -17z"/>
<path d="M1550 301 c0 -74 3 -91 15 -91 12 0 15 13 15 58 l1 57 35 -58 c52
-84 69 -76 69 33 0 73 -2 85 -17 88 -16 3 -18 -5 -18 -55 l0 -58 -33 55 c-18
30 -41 56 -50 58 -15 3 -17 -7 -17 -87z"/>
<path d="M2001 309 c-17 -44 -31 -85 -31 -90 0 -18 32 -9 37 11 8 29 79 29 88
0 3 -11 15 -20 26 -20 21 0 23 -10 -36 138 -27 66 -47 57 -84 -39z"/>
<path d="M2284 377 c-3 -8 -4 -47 -2 -88 l3 -74 68 -3 c55 -2 67 0 67 13 0 11
-12 15 -50 15 -47 0 -50 2 -50 25 0 23 4 25 45 25 33 0 45 4 45 15 0 11 -12
15 -45 15 -38 0 -45 3 -45 20 0 17 7 20 45 20 33 0 45 4 45 15 0 20 -118 22
-126 2z"/>
<path d="M3070 300 c0 -83 1 -90 20 -90 17 0 20 7 20 40 0 22 4 40 9 40 5 0
25 -18 43 -41 21 -25 41 -40 51 -38 15 4 15 8 -7 39 -23 35 -23 36 -5 59 24
29 24 36 -1 61 -15 15 -33 20 -75 20 l-55 0 0 -90z"/>
<path d="M3310 370 c-57 -57 -30 -147 47 -157 35 -5 45 -2 67 20 36 36 36 98
1 132 -31 31 -86 34 -115 5z"/>
<path d="M3520 300 c0 -72 3 -90 15 -90 10 0 15 15 17 58 l3 57 35 -57 c21
-36 42 -58 52 -58 16 0 18 11 18 90 0 72 -3 90 -15 90 -10 0 -15 -15 -17 -57
l-3 -58 -35 57 c-21 34 -42 58 -52 58 -16 0 -18 -11 -18 -90z"/>
<path d="M4082 307 c-18 -46 -32 -87 -32 -91 0 -16 32 -4 37 14 8 29 79 29 88
0 3 -11 15 -20 26 -20 10 0 19 1 19 3 0 2 -15 41 -34 88 -47 116 -62 117 -104
6z"/>
</g>
</svg>
