<?xml version="1.0" encoding="iso-8859-1"?>
<!-- Generator: Adobe Illustrator 19.0.0, SVG Export Plug-In . SVG Version: 6.00 Build 0)  -->
<svg version="1.1" id="Capa_1" xmlns="http://www.w3.org/2000/svg" xmlns:xlink="http://www.w3.org/1999/xlink" x="0px" y="0px"
	 viewBox="0 0 512 512" style="enable-background:new 0 0 512 512;" xml:space="preserve">
<g>
	<g>
		<rect x="440" y="473.5" width="15" height="15"/>
	</g>
</g>
<g>
	<g>
		<rect y="473.5" width="395" height="15"/>
	</g>
</g>
<g>
	<g>
		<rect x="470" y="473.5" width="42" height="15"/>
	</g>
</g>
<g>
	<g>
		<rect x="410" y="473.5" width="15" height="15"/>
	</g>
</g>
<g>
	<g>
		<path d="M290.245,29.092l-4.789,14.215c4.363,1.47,8.656,3.287,12.758,5.402l6.872-13.333
			C300.314,32.917,295.321,30.802,290.245,29.092z"/>
	</g>
</g>
<g>
	<g>
		<path d="M318.812,43.807l-8.784,12.159c3.74,2.702,7.308,5.708,10.606,8.936l10.491-10.72
			C327.296,50.435,323.153,46.944,318.812,43.807z"/>
	</g>
</g>
<g>
	<g>
		<path d="M256,23.5c-28.292,0-55.018,10.941-75.254,30.808l10.509,10.704C208.669,47.916,231.663,38.5,256,38.5
			c5.382,0,10.776,0.468,16.032,1.39l2.593-14.774C268.515,24.043,262.249,23.5,256,23.5z"/>
	</g>
</g>
<g>
	<g>
		<path d="M256,53.5c-42.734,0-77.5,34.766-77.5,77.5v327.5h155V131C333.5,88.266,298.734,53.5,256,53.5z M206.853,92.459
			l31.041,31.041h-43.928C195.363,111.876,199.96,101.229,206.853,92.459z M248.5,443.5h-55v-65h55V443.5z M248.5,363.5h-55v-65h55
			V363.5z M248.5,283.5h-55v-65h55V283.5z M248.5,203.5h-55v-65h55V203.5z M248.5,112.894l-31.041-31.041
			c8.77-6.893,19.417-11.489,31.041-12.887V112.894z M318.034,123.5h-43.928l31.041-31.041
			C312.04,101.229,316.636,111.876,318.034,123.5z M263.5,68.966c11.624,1.397,22.271,5.994,31.041,12.887L263.5,112.894V68.966z
			 M318.5,443.5h-55v-65h55V443.5z M318.5,363.5h-55v-65h55V363.5z M318.5,283.5h-55v-65h55V283.5z M318.5,203.5h-55v-65h55V203.5z"
			/>
	</g>
</g>
<g>
	<g>
		<path d="M431,23.5c-28.292,0-55.018,10.941-75.254,30.808l10.509,10.704C383.669,47.916,406.663,38.5,431,38.5
			c5.382,0,10.776,0.468,16.032,1.39l2.593-14.774C443.515,24.043,437.249,23.5,431,23.5z"/>
	</g>
</g>
<g>
	<g>
		<path d="M465.245,29.092l-4.789,14.215c4.363,1.47,8.656,3.287,12.758,5.402l6.872-13.333
			C475.314,32.917,470.321,30.802,465.245,29.092z"/>
	</g>
</g>
<g>
	<g>
		<path d="M493.812,43.807l-8.784,12.159c3.74,2.702,7.308,5.708,10.606,8.936l10.491-10.72
			C502.296,50.435,498.153,46.944,493.812,43.807z"/>
	</g>
</g>
<g>
	<g>
		<path d="M431,53.5c-42.734,0-77.5,34.766-77.5,77.5v327.5h155V131C508.5,88.266,473.734,53.5,431,53.5z M381.853,92.459
			l31.041,31.041h-43.928C370.363,111.876,374.96,101.229,381.853,92.459z M423.5,443.5h-55v-65h55V443.5z M423.5,363.5h-55v-65h55
			V363.5z M423.5,283.5h-55v-65h55V283.5z M423.5,203.5h-55v-65h55V203.5z M423.5,112.894l-31.041-31.041
			c8.77-6.893,19.417-11.489,31.041-12.887V112.894z M493.034,123.5h-43.928l31.041-31.041
			C487.04,101.229,491.636,111.876,493.034,123.5z M438.5,68.966c11.624,1.397,22.271,5.994,31.041,12.887L438.5,112.894V68.966z
			 M493.5,443.5h-55v-65h55V443.5z M493.5,363.5h-55v-65h55V363.5z M493.5,283.5h-55v-65h55V283.5z M493.5,203.5h-55v-65h55V203.5z"
			/>
	</g>
</g>
<g>
	<g>
		<path d="M115.245,29.092l-4.789,14.215c4.363,1.47,8.656,3.287,12.758,5.402l6.872-13.333
			C125.314,32.917,120.321,30.802,115.245,29.092z"/>
	</g>
</g>
<g>
	<g>
		<path d="M143.812,43.807l-8.784,12.159c3.74,2.702,7.308,5.708,10.606,8.936l10.491-10.72
			C152.296,50.435,148.153,46.944,143.812,43.807z"/>
	</g>
</g>
<g>
	<g>
		<path d="M81,23.5c-28.292,0-55.018,10.941-75.254,30.808l10.509,10.704C33.669,47.916,56.663,38.5,81,38.5
			c5.382,0,10.776,0.468,16.032,1.39l2.593-14.774C93.515,24.043,87.249,23.5,81,23.5z"/>
	</g>
</g>
<g>
	<g>
		<path d="M81,53.5C38.266,53.5,3.5,88.266,3.5,131v327.5h155V131C158.5,88.266,123.734,53.5,81,53.5z M31.853,92.459L62.894,123.5
			H18.966C20.363,111.876,24.96,101.229,31.853,92.459z M73.5,443.5h-55v-65h55V443.5z M73.5,363.5h-55v-65h55V363.5z M73.5,283.5
			h-55v-65h55V283.5z M73.5,203.5h-55v-65h55V203.5z M73.5,112.894L42.459,81.853c8.77-6.893,19.417-11.489,31.041-12.887V112.894z
			 M143.034,123.5H99.106l31.041-31.041C137.04,101.229,141.636,111.876,143.034,123.5z M88.5,68.966
			c11.624,1.397,22.271,5.994,31.041,12.887L88.5,112.894V68.966z M143.5,443.5h-55v-65h55V443.5z M143.5,363.5h-55v-65h55V363.5z
			 M143.5,283.5h-55v-65h55V283.5z M143.5,203.5h-55v-65h55V203.5z"/>
	</g>
</g>
<g>
</g>
<g>
</g>
<g>
</g>
<g>
</g>
<g>
</g>
<g>
</g>
<g>
</g>
<g>
</g>
<g>
</g>
<g>
</g>
<g>
</g>
<g>
</g>
<g>
</g>
<g>
</g>
<g>
</g>
</svg>
