<?xml version="1.0" standalone="no"?>
<!DOCTYPE svg PUBLIC "-//W3C//DTD SVG 20010904//EN"
 "http://www.w3.org/TR/2001/REC-SVG-20010904/DTD/svg10.dtd">
<svg version="1.0" xmlns="http://www.w3.org/2000/svg"
 width="826.000000pt" height="79.000000pt" viewBox="0 0 826.000000 79.000000"
 preserveAspectRatio="xMidYMid meet">

<g transform="translate(0.000000,79.000000) scale(0.100000,-0.100000)"
fill="#000000" stroke="none">
<path d="M1964 779 c-41 -12 -74 -49 -85 -96 -5 -21 -9 -121 -9 -223 0 -102
-4 -190 -8 -196 -13 -21 -52 -34 -77 -28 -51 13 -55 32 -55 247 0 219 -6 249
-59 280 -16 9 -50 17 -76 17 -40 0 -52 -5 -80 -33 -44 -44 -48 -75 -43 -328 3
-192 5 -207 27 -249 36 -69 68 -106 119 -140 45 -30 47 -30 179 -30 154 0 183
10 247 81 76 83 81 104 84 371 3 201 1 241 -13 267 -27 53 -90 78 -151 60z
m16 -85 c0 -19 -28 -30 -42 -16 -8 8 -8 15 1 26 14 17 41 10 41 -10z m-420
-256 l5 -215 30 -49 c19 -30 49 -60 79 -79 43 -26 59 -30 120 -30 39 0 84 4
99 9 25 8 29 6 25 -10 -6 -32 -47 -45 -128 -41 -87 4 -137 26 -191 84 -71 74
-74 85 -77 316 -4 214 -1 242 21 235 9 -4 13 -60 17 -220z m398 32 c3 -185 -6
-246 -39 -276 -15 -13 -22 -15 -31 -6 -8 8 -5 24 11 61 19 45 21 68 21 226 0
163 1 176 18 173 15 -3 17 -21 20 -178z"/>
<path d="M3416 780 c-15 -5 -37 -17 -48 -27 -42 -37 -48 -72 -48 -282 l0 -200
-26 -20 c-34 -26 -54 -26 -88 0 l-26 20 0 200 c0 211 -6 245 -49 283 -12 11
-42 21 -71 24 -58 5 -90 -11 -120 -61 -18 -29 -20 -52 -20 -254 0 -194 2 -229
19 -273 25 -65 74 -126 130 -162 44 -27 49 -28 181 -28 133 0 137 1 182 29 52
33 88 77 120 147 21 46 23 65 26 276 3 195 1 231 -13 262 -27 57 -89 84 -149
66z m10 -99 c-10 -16 -36 -13 -43 5 -8 22 18 37 36 20 7 -8 10 -19 7 -25z
m-422 -37 c3 -9 6 -100 6 -202 0 -103 5 -204 11 -226 6 -23 29 -57 57 -85 69
-69 117 -80 266 -59 31 5 29 -20 -3 -36 -18 -10 -56 -16 -95 -16 -117 0 -237
85 -266 188 -11 40 -14 434 -3 445 11 11 20 8 27 -9z m404 -204 c-3 -149 -7
-191 -21 -216 -19 -36 -41 -48 -56 -30 -7 8 -4 21 9 41 18 27 20 49 20 216 0
133 3 188 12 197 10 10 15 9 26 -5 11 -14 13 -59 10 -203z"/>
<path d="M6885 771 c-22 -10 -47 -31 -56 -47 -23 -41 -112 -556 -106 -617 3
-35 12 -56 32 -77 26 -27 35 -30 93 -30 58 0 67 3 92 30 26 28 50 112 50 174
0 33 17 6 45 -69 15 -42 39 -90 52 -106 22 -26 31 -29 87 -29 92 0 118 26 161
160 10 30 21 59 25 63 3 4 12 -25 20 -65 22 -129 49 -158 145 -158 33 0 67 6
75 13 30 23 50 62 50 94 0 57 -98 580 -115 612 -19 38 -67 63 -116 63 -74 -1
-88 -18 -174 -204 -32 -71 -62 -128 -66 -128 -3 0 -32 60 -64 133 -61 142 -82
172 -132 193 -41 18 -50 17 -98 -5z m24 -50 c17 -11 7 -41 -13 -41 -19 0 -29
17 -22 35 6 17 15 18 35 6z m484 -13 c6 -19 -3 -38 -18 -38 -18 0 -28 17 -21
35 7 18 33 20 39 3z m-503 -72 c0 -12 -21 -134 -46 -270 -25 -136 -44 -255
-42 -264 2 -10 16 -19 33 -22 39 -7 40 -34 1 -38 -38 -5 -76 31 -76 71 0 27
85 506 95 535 8 22 35 13 35 -12z m470 11 c0 -13 -97 -238 -113 -264 -11 -17
-37 -16 -37 1 0 13 75 187 106 248 15 29 44 38 44 15z m-264 -432 c42 -124 47
-133 77 -137 12 -2 23 -11 25 -20 3 -14 -3 -18 -23 -18 -14 0 -35 4 -45 10
-28 15 -117 257 -106 287 12 29 31 -5 72 -122z m338 98 c3 -10 12 -61 21 -113
15 -92 29 -120 67 -132 16 -6 2 -38 -16 -38 -8 0 -27 10 -42 23 -23 20 -30 39
-45 123 -23 123 -23 154 -5 154 8 0 17 -8 20 -17z"/>
<path d="M113 764 c-20 -10 -40 -32 -53 -58 -19 -39 -20 -61 -20 -313 0 -149
3 -285 6 -302 4 -18 20 -45 36 -62 l30 -29 197 0 197 0 47 29 c67 43 100 99
105 176 5 74 -8 120 -48 170 -28 36 -29 38 -15 72 21 49 19 139 -4 188 -29 61
-86 113 -144 130 -72 21 -290 20 -334 -1z m34 -60 c3 -8 1 -20 -5 -26 -15 -15
-43 8 -35 28 7 19 32 18 40 -2z m-17 -333 c3 -155 2 -288 -2 -294 -4 -7 -11
-7 -22 2 -14 12 -16 51 -16 298 0 266 1 284 18 281 16 -3 17 -27 22 -287z
m277 232 c41 -19 69 -69 59 -107 -10 -39 -30 -31 -43 17 -13 48 -41 67 -98 67
-35 0 -51 12 -40 30 10 16 83 12 122 -7z m-46 -73 c26 -15 24 -38 -5 -52 -35
-16 -56 -4 -56 32 0 24 4 30 21 30 11 0 29 -5 40 -10z m78 -165 c33 -16 54
-60 49 -101 -4 -40 -30 -37 -39 4 -11 54 -35 72 -94 72 -49 0 -84 17 -68 33
12 13 124 7 152 -8z m-51 -74 c8 -5 12 -17 10 -27 -2 -15 -14 -20 -51 -22 -46
-3 -47 -3 -47 27 0 29 2 31 38 31 20 0 43 -4 50 -9z m129 -207 c13 -34 -24
-44 -160 -44 -117 0 -128 2 -125 18 3 15 19 18 125 22 67 3 125 8 129 13 12
12 24 8 31 -9z"/>
<path d="M968 747 c-36 -37 -298 -586 -298 -625 0 -35 26 -88 51 -106 15 -10
44 -16 80 -16 64 0 98 20 119 70 l12 30 119 0 c113 0 119 -1 130 -22 6 -13 23
-35 37 -51 23 -24 33 -27 88 -27 56 0 66 3 92 30 61 60 59 69 -95 397 -156
335 -169 353 -253 353 -43 0 -54 -5 -82 -33z m60 -50 c4 -20 -25 -34 -40 -19
-15 15 -1 44 19 40 10 -2 19 -11 21 -21z m-38 -54 c0 -10 -52 -128 -115 -262
-63 -134 -115 -252 -115 -262 0 -10 11 -26 25 -35 32 -21 32 -44 1 -44 -30 0
-66 43 -66 79 0 14 50 132 111 261 61 129 115 245 120 258 10 26 39 30 39 5z
m153 -271 c41 -96 45 -115 22 -110 -17 3 -98 175 -89 189 14 24 33 1 67 -79z
m-57 -89 c-2 -2 -19 -3 -38 -1 l-34 3 19 44 19 44 19 -43 c11 -24 17 -45 15
-47z m118 -113 c14 -5 35 -27 48 -50 13 -23 33 -43 46 -46 29 -8 25 -38 -4
-42 -15 -2 -29 7 -45 28 -63 84 -54 80 -198 80 -124 0 -151 6 -136 30 8 13
255 13 289 0z"/>
<path d="M2340 771 c-102 -22 -105 -31 -105 -381 0 -157 3 -297 7 -311 4 -14
19 -38 32 -52 22 -24 33 -27 86 -27 34 0 70 5 81 10 32 18 49 64 49 135 0 36
3 65 8 65 4 0 25 -32 47 -72 22 -40 53 -87 69 -105 26 -30 33 -33 88 -33 75 0
95 11 120 66 24 55 19 81 -31 163 l-39 62 34 50 c39 59 48 99 41 185 -8 102
-65 182 -162 225 -41 18 -72 23 -170 25 -66 2 -136 0 -155 -5z m-5 -77 c0 -10
-8 -20 -17 -22 -18 -3 -26 27 -11 42 12 11 28 0 28 -20z m-15 -315 c3 -151 9
-280 13 -287 5 -7 20 -17 34 -23 29 -11 26 -33 -5 -37 -34 -5 -60 15 -72 56
-11 41 -14 554 -3 566 24 23 28 -15 33 -275z m274 226 c18 -9 40 -28 49 -44
21 -36 23 -101 3 -101 -14 0 -18 7 -30 63 -7 32 -54 57 -106 57 -28 0 -40 17
-23 33 12 12 74 7 107 -8z m-40 -75 c53 -20 21 -86 -37 -78 -16 2 -23 11 -25
31 -7 55 10 67 62 47z m46 -320 c57 -93 82 -126 103 -133 28 -9 36 -34 14 -43
-36 -13 -66 17 -145 146 -73 119 -90 167 -58 157 6 -2 45 -59 86 -127z"/>
<path d="M4238 747 c-22 -23 -73 -119 -155 -298 -67 -145 -127 -277 -133 -294
-16 -42 -4 -89 31 -125 27 -26 38 -30 85 -30 68 0 87 10 119 60 l25 40 115 0
c108 0 115 -1 126 -22 6 -13 23 -35 37 -51 23 -24 33 -27 90 -27 58 0 66 3 92
30 32 34 45 78 34 112 -4 13 -65 147 -136 298 -148 317 -165 340 -248 340 -43
0 -54 -4 -82 -33z m60 -50 c4 -20 -25 -34 -40 -19 -15 15 -1 44 19 40 10 -2
19 -11 21 -21z m-38 -53 c0 -9 -52 -128 -115 -264 -63 -136 -115 -254 -115
-263 0 -8 14 -25 30 -37 23 -17 28 -25 20 -35 -24 -29 -90 23 -90 71 0 13 46
122 101 241 56 120 110 237 121 261 19 41 48 57 48 26z m153 -271 c41 -97 45
-116 21 -111 -17 3 -97 175 -88 189 14 24 33 2 67 -78z m-57 -90 c-2 -2 -20
-3 -39 -1 l-34 3 19 45 19 45 20 -44 c11 -24 17 -46 15 -48z m111 -109 c13 -4
39 -28 58 -55 19 -27 42 -49 51 -49 24 0 13 -34 -12 -38 -15 -2 -29 7 -45 28
-63 84 -54 80 -198 80 -124 0 -151 6 -136 30 7 11 244 14 282 4z"/>
<path d="M4792 746 l-37 -34 -3 -308 c-3 -332 -1 -349 48 -384 26 -18 45 -20
220 -20 l192 0 26 28 27 27 27 -27 c23 -24 35 -28 86 -28 67 0 101 19 122 70
l12 30 119 0 118 0 17 -35 c24 -52 49 -65 119 -65 54 0 64 3 87 28 33 33 50
78 43 106 -10 34 -257 559 -278 589 -25 36 -67 57 -116 57 -69 0 -88 -27 -227
-325 -69 -148 -127 -271 -129 -273 -2 -2 -12 5 -24 17 -27 27 -82 41 -163 41
l-66 0 -4 218 c-4 242 -12 278 -67 306 -52 28 -106 21 -149 -18z m55 -42 c8
-21 -13 -42 -28 -27 -13 13 -5 43 11 43 6 0 13 -7 17 -16z m757 0 c7 -19 -1
-34 -19 -34 -18 0 -28 17 -21 35 7 20 32 19 40 -1z m-774 -335 c3 -156 1 -288
-3 -294 -5 -6 -14 -3 -23 9 -11 16 -14 71 -14 291 0 150 3 275 7 279 24 23 28
-16 33 -285z m740 276 c0 -8 -52 -126 -115 -261 -63 -135 -115 -254 -115 -265
0 -10 11 -26 25 -35 32 -21 32 -44 1 -44 -30 0 -66 43 -66 80 0 14 43 118 96
231 53 112 107 228 119 257 23 49 55 71 55 37z m145 -260 c47 -102 53 -128 30
-123 -11 2 -32 34 -56 88 -43 96 -46 110 -23 110 9 0 28 -29 49 -75z m-62 -62
c14 -36 14 -38 -4 -41 -10 -2 -28 -2 -38 0 -18 3 -18 5 -4 41 8 20 19 37 23
37 4 0 15 -17 23 -37z m130 -152 c14 -6 35 -28 48 -51 13 -23 33 -43 46 -46
26 -7 31 -32 7 -41 -24 -9 -59 15 -83 57 -12 21 -28 41 -37 44 -9 3 -74 6
-145 6 -101 0 -129 3 -129 13 0 8 3 17 7 20 10 11 258 8 286 -2z m-570 -107
c-8 -21 -36 -25 -162 -22 -80 2 -116 7 -119 16 -3 9 23 12 105 12 73 1 116 5
133 15 28 15 53 3 43 -21z"/>
<path d="M6156 771 c-25 -5 -50 -20 -68 -40 l-28 -31 0 -306 c0 -315 1 -326
43 -371 17 -19 31 -23 82 -23 97 0 123 28 134 143 l6 70 45 -78 c72 -128 81
-135 155 -135 73 0 107 20 125 76 16 47 8 83 -35 149 -38 61 -42 77 -21 94 8
7 24 33 37 59 31 66 31 171 0 235 -27 57 -105 128 -157 146 -47 15 -263 23
-318 12z m1 -62 c14 -14 6 -39 -12 -39 -18 0 -28 17 -21 35 6 18 18 19 33 4z
m-9 -337 l2 -282 31 -15 c35 -19 34 -39 -3 -43 -18 -2 -32 5 -47 24 -20 26
-21 37 -21 309 0 155 3 285 7 289 24 24 28 -15 31 -282z m268 233 c56 -23 98
-145 49 -145 -8 0 -16 16 -20 39 -9 52 -31 70 -94 78 -47 5 -63 18 -44 36 11
12 72 8 109 -8z m-42 -75 c51 -19 25 -80 -33 -80 -18 0 -21 6 -21 45 0 49 7
53 54 35z m53 -327 c51 -88 74 -118 95 -125 30 -11 37 -35 14 -44 -32 -12 -68
25 -141 144 -73 119 -82 141 -68 155 12 12 32 -14 100 -130z"/>
<path d="M7830 771 c-19 -4 -44 -13 -56 -21 -47 -30 -49 -39 -52 -342 -4 -324
1 -358 51 -388 29 -18 51 -20 221 -20 l188 0 34 34 c29 29 34 41 34 80 0 88
-61 125 -202 126 -66 0 -68 1 -68 25 0 23 3 25 53 25 108 0 157 31 157 98 0
24 -9 42 -29 63 -27 27 -35 29 -105 29 -73 0 -76 1 -76 24 0 23 3 23 98 28 53
3 107 10 119 17 31 16 53 62 53 110 0 62 -38 99 -115 111 -67 11 -252 11 -305
1z m-5 -76 c0 -11 -8 -21 -17 -23 -14 -3 -18 3 -18 23 0 20 4 26 18 23 9 -2
17 -12 17 -23z m-17 -333 c1 -161 -1 -292 -6 -292 -29 0 -32 29 -32 300 0 152
3 280 7 284 24 24 28 -15 31 -292z m379 261 c2 -6 -3 -18 -12 -27 -13 -12 -37
-16 -109 -16 -97 0 -113 4 -95 27 8 9 37 13 95 13 47 0 86 5 89 11 8 12 27 7
32 -8z m-54 -250 c4 -3 2 -12 -4 -20 -8 -9 -35 -13 -84 -13 -77 0 -91 5 -74
27 12 14 149 19 162 6z m57 -302 c0 -27 -18 -31 -156 -31 -104 0 -124 2 -124
15 0 12 18 15 103 16 56 0 111 4 122 9 34 15 55 11 55 -9z"/>
</g>
</svg>
